<svg width="1440" height="2659" viewBox="0 0 1440 2659" fill="none" xmlns="http://www.w3.org/2000/svg">
<rect x="-4" y="1738" width="1440" height="900" fill="url(#paint0_linear)"/>
<path d="M615.391 2060.38L585.914 2030.17L515.794 2098.92L544.825 2128.53L615.391 2060.38Z" fill="#4787DB"/>
<path d="M515.794 2098.92L445.674 2167.67L474.258 2196.69L544.824 2128.53L515.794 2098.92Z" fill="#539DFF"/>
<path d="M616.879 2202.05L686.999 2133.29L657.373 2103.09L586.807 2171.24L616.879 2202.05Z" fill="#4787DB"/>
<path d="M544.824 2128.53L474.258 2196.69L516.241 2239.55L586.807 2171.24L544.824 2128.53Z" fill="#4787DB"/>
<path d="M544.824 2128.53L586.807 2171.24L657.374 2103.09L615.391 2060.38L544.824 2128.53Z" fill="#539DFF"/>
<path d="M516.24 2239.55L546.76 2270.8L616.88 2202.05L586.807 2171.24L516.24 2239.55Z" fill="#539DFF"/>
<path d="M338.782 2327.5L311.24 2299.37L241.12 2368.12L268.215 2395.8L338.782 2327.5Z" fill="#4787DB"/>
<path d="M268.216 2395.8L197.5 2463.96L239.483 2506.67L310.049 2438.51L268.216 2395.8Z" fill="#4787DB"/>
<path d="M241.12 2368.12L171 2436.87L197.5 2463.96L268.215 2395.8L241.12 2368.12Z" fill="#539DFF"/>
<path d="M268.215 2395.8L310.049 2438.51L380.764 2370.35L338.781 2327.5L268.215 2395.8Z" fill="#539DFF"/>
<path d="M239.482 2506.67L272.235 2540L342.355 2471.25L310.049 2438.51L239.482 2506.67Z" fill="#539DFF"/>
<path d="M342.355 2471.25L412.326 2402.5L380.764 2370.35L310.049 2438.51L342.355 2471.25Z" fill="#4787DB"/>
<path d="M520.111 2381.96L497.929 2403.69C494.654 2406.96 490.634 2409.19 486.614 2410.53L501.204 2425.41L532.617 2394.61L520.111 2381.96Z" fill="#E6675F"/>
<path d="M546.313 2356.22L520.111 2381.96L532.468 2394.76L568.049 2359.94L553.459 2345.06C551.971 2349.07 549.737 2352.94 546.313 2356.22Z" fill="#FF7269"/>
<path d="M439.421 2247.28L413.814 2272.29L443.441 2302.94L469.196 2277.64C472.471 2274.37 476.491 2272.14 480.51 2270.8L446.269 2235.98C445.227 2240.14 442.845 2244.01 439.421 2247.28Z" fill="#FF7269"/>
<path d="M420.961 2325.26L443.738 2302.94L414.112 2272.29L391.186 2294.76C387.91 2298.03 383.891 2300.26 379.871 2301.6L414.112 2336.42C415.303 2332.41 417.536 2328.54 420.961 2325.26Z" fill="#E6675F"/>
<path d="M520.112 2381.96L443.59 2303.09L420.812 2325.41C417.537 2328.69 415.155 2332.55 413.666 2336.72C410.242 2346.84 412.326 2358.45 420.366 2366.63L456.542 2403.54C464.581 2411.72 476.194 2414.1 486.317 2410.83C490.486 2409.49 494.356 2407.26 497.632 2403.98L520.112 2381.96Z" fill="#D7D8D9"/>
<path d="M443.59 2302.94L520.111 2381.81L546.313 2356.07C549.589 2352.79 551.971 2348.92 553.459 2344.91C557.032 2334.79 554.799 2323.18 546.76 2314.99L510.584 2278.09C502.544 2269.9 490.932 2267.52 480.809 2270.8C476.64 2272.14 472.769 2274.37 469.494 2277.64L443.59 2302.94Z" fill="white"/>
<path d="M413.964 2272.29L337.442 2193.41L314.069 2216.33C310.794 2219.61 308.412 2223.47 306.923 2227.49C303.499 2237.61 305.583 2249.22 313.622 2257.4L349.799 2294.31C357.838 2302.49 369.45 2304.88 379.574 2301.6C383.742 2300.26 387.613 2298.03 390.888 2294.76L413.964 2272.29Z" fill="#D7D8D9"/>
<path d="M337.442 2193.41L413.964 2272.29L439.57 2247.28C442.846 2244.01 445.228 2240.14 446.716 2235.98C450.289 2225.86 448.056 2214.25 440.017 2206.06L403.841 2169.16C395.801 2160.97 384.189 2158.59 374.066 2161.87C369.897 2163.21 366.026 2165.44 362.751 2168.71L337.442 2193.41Z" fill="white"/>
<path d="M215.216 2067.07L239.036 2122.28L254.221 2107.4L215.216 2067.07Z" fill="#D1D1D1"/>
<path d="M269.853 2092.07L215.216 2067.07L254.221 2107.4L269.853 2092.07Z" fill="white"/>
<path d="M304.243 2159.04C298.437 2164.54 292.333 2169.6 285.932 2173.77L306.179 2194.46L322.853 2178.24L304.243 2159.04Z" fill="#D1D1D1"/>
<path d="M304.243 2159.04L322.853 2178.24L340.866 2160.53L320.619 2139.84C316.004 2146.39 310.794 2152.64 304.839 2158.44C304.69 2158.74 304.392 2158.89 304.243 2159.04Z" fill="white"/>
<path d="M337.442 2193.41L362.453 2168.86C365.728 2165.59 369.748 2163.35 373.767 2162.02L356.944 2144.75L340.717 2160.53L322.703 2178.24L337.442 2193.41Z" fill="#FF7269"/>
<path d="M314.069 2216.33L337.442 2193.41L322.704 2178.24L306.03 2194.46L289.951 2210.38L306.923 2227.64C308.412 2223.47 310.794 2219.61 314.069 2216.33Z" fill="#E6675F"/>
<path d="M304.243 2159.04C304.392 2158.89 304.689 2158.74 304.838 2158.44C310.793 2152.64 316.004 2146.39 320.619 2139.84C343.992 2106.21 349.649 2063.8 337.293 2026L269.853 2092.07L254.221 2107.4L304.243 2159.04Z" fill="white"/>
<path d="M254.221 2107.4L239.036 2122.28L171.596 2188.35C209.261 2201.45 251.69 2196.54 285.932 2173.77C292.333 2169.46 298.437 2164.54 304.243 2159.04L254.221 2107.4Z" fill="#F0F0F0"/>
<g clip-path="url(#clip0)">
<path d="M1269.9 1904C1246.7 1884.6 1216.9 1873 1184.4 1873C1110.7 1873 1051 1932.7 1051 2006.4C1051 2025.9 1055.2 2044.4 1062.7 2061C1083.6 2107.4 1130.2 2139.7 1184.4 2139.7C1258.1 2139.7 1317.8 2080 1317.8 2006.3C1317.7 1965.2 1299.1 1928.4 1269.9 1904Z" fill="#00B164"/>
<path d="M1180 2117.9C1245.1 2117.9 1297.9 2065.1 1297.9 2000C1297.9 1977.5 1291.6 1956.5 1280.6 1938.6C1281.3 1944 1281.7 1949.6 1281.7 1955.2C1281.7 2028.9 1222 2088.6 1148.3 2088.6C1126.8 2088.6 1106.5 2083.5 1088.5 2074.4C1110.1 2100.9 1143 2117.9 1180 2117.9Z" fill="#00D478"/>
<path d="M1144.4 2010.7C1144.4 2024.7 1133 2036.1 1119 2036.1C1105 2036.1 1093.6 2024.7 1093.6 2010.7C1093.6 1996.7 1105 1985.3 1119 1985.3C1133.1 1985.3 1144.4 1996.6 1144.4 2010.7Z" fill="#00D478"/>
</g>
<g clip-path="url(#clip1)">
<path d="M722 2411.3L722.5 2429.3L737.6 2439.1L720.6 2445.2L716 2462.6L705 2448.3L687 2449.2L697.2 2434.4L690.7 2417.5L708 2422.6L722 2411.3Z" fill="#539DFF"/>
<path d="M970 2153L984.9 2168.1L1005.8 2164.4L996 2183.2L1006 2201.9L985.1 2198.5L970.3 2213.7L967.2 2192.8L948.1 2183.5L967.1 2174L970 2153Z" fill="#539DFF"/>
<path d="M774.7 2513.4L793.8 2548.2L828.6 2567.3L793.8 2586.3L774.7 2621.2L755.7 2586.3L720.8 2567.3L755.7 2548.2L774.7 2513.4Z" fill="#FF705A"/>
</g>
<g clip-path="url(#clip2)">
<path d="M902.6 1995.9C911.934 1995.9 919.5 1988.33 919.5 1979C919.5 1969.67 911.934 1962.1 902.6 1962.1C893.267 1962.1 885.7 1969.67 885.7 1979C885.7 1988.33 893.267 1995.9 902.6 1995.9Z" fill="white"/>
</g>
<path d="M591.2 1798L617.8 1846.6L666.4 1873.2L617.8 1899.8L591.2 1948.4L564.6 1899.8L516 1873.2L564.6 1846.6L591.2 1798Z" fill="#4B5670"/>
<path d="M1328 2250C1333.52 2250 1338 2245.52 1338 2240C1338 2234.48 1333.52 2230 1328 2230C1322.48 2230 1318 2234.48 1318 2240C1318 2245.52 1322.48 2250 1328 2250Z" fill="#00B164"/>
<path d="M1245 2441L1251.9 2458.4L1269.8 2452.9L1260.5 2469.2L1276 2479.8L1257.4 2482.6L1258.8 2501.4L1245 2488.6L1231.2 2501.4L1232.6 2482.6L1214 2479.8L1229.5 2469.2L1220.2 2452.9L1238.1 2458.4L1245 2441Z" fill="#FFE284"/>
<rect x="-4" y="841" width="1440" height="900" fill="url(#paint1_linear)"/>
<g clip-path="url(#clip3)">
<g clip-path="url(#clip4)">
<path d="M1490 1108.84L1297.75 1108.84C1276.48 1108.84 1259.23 1126.1 1259.23 1147.38L1259.23 1467.62C1259.23 1488.9 1276.48 1506.16 1297.75 1506.16L1490 1506.16L1490 1108.84Z" fill="#495B71"/>
<path d="M1490 1043L1372.5 1081.33C1348.52 1089.15 1329.03 1106.88 1318.98 1130.04L1309.61 1151.62C1301.54 1170.22 1297.38 1190.23 1297.38 1210.5L1297.38 1307.5L1297.38 1404.5C1297.38 1424.77 1301.54 1444.82 1309.61 1463.38L1318.98 1484.96C1329.03 1508.12 1348.52 1525.85 1372.5 1533.67L1490 1572L1490 1043Z" fill="#E6E7E8"/>
<path d="M1164.98 1219.66L1164.98 1395.34L1326.86 1395.34L1326.86 1219.66L1164.98 1219.66Z" fill="#A7A9AC"/>
<path d="M1164.98 1252.49L1164.98 1395.34L1326.86 1395.34L1326.86 1252.49L1164.98 1252.49Z" fill="#808285"/>
<path d="M1057.43 1279.78L1057.43 1335.26C1057.43 1342.21 1051.82 1347.82 1044.88 1347.82L1035.55 1347.82C1028.61 1347.82 1023 1342.21 1023 1335.26L1023 1279.78C1023 1272.83 1028.61 1267.22 1035.55 1267.22L1044.88 1267.22C1051.82 1267.18 1057.43 1272.83 1057.43 1279.78Z" fill="#E6E7E8"/>
<path d="M1210.99 1182.38L1210.99 1432.66C1210.99 1443.44 1202.23 1452.2 1191.46 1452.2L1154.35 1452.2C1143.57 1452.2 1134.82 1443.44 1134.82 1432.66L1134.82 1182.38C1134.82 1171.59 1143.57 1162.84 1154.35 1162.84L1191.46 1162.84C1202.23 1162.84 1210.99 1171.56 1210.99 1182.38Z" fill="#E6E7E8"/>
<path d="M1305.2 1307.5C1305.2 1234.36 1245.95 1175.07 1172.87 1175.07C1099.79 1175.07 1040.54 1234.36 1040.54 1307.5C1040.54 1380.64 1099.79 1439.93 1172.87 1439.93C1245.95 1439.93 1305.2 1380.64 1305.2 1307.5Z" fill="#E6E7E8"/>
<path d="M1172.87 1175.07C1099.78 1175.07 1040.54 1234.35 1040.54 1307.5C1040.54 1348.29 1058.95 1384.77 1087.95 1409.06C1138.11 1419.16 1192.25 1404.71 1231.13 1365.81C1270.01 1326.9 1284.44 1272.72 1274.35 1222.52C1250.08 1193.49 1213.63 1175.07 1172.87 1175.07Z" fill="white"/>
<path d="M1296.19 1307.5C1296.19 1239.34 1240.98 1184.08 1172.87 1184.08C1104.76 1184.08 1049.54 1239.34 1049.54 1307.5C1049.54 1375.66 1104.76 1430.92 1172.87 1430.92C1240.98 1430.92 1296.19 1375.66 1296.19 1307.5Z" fill="#D1D3D4"/>
<path d="M1172.87 1184.08C1104.77 1184.08 1049.54 1239.35 1049.54 1307.5C1049.54 1351.29 1072.37 1389.77 1106.72 1411.7C1151.28 1415.21 1197.03 1399.94 1231.13 1365.81C1265.2 1331.71 1280.5 1285.89 1276.99 1241.3C1255.11 1206.92 1216.66 1184.08 1172.87 1184.08Z" fill="#E6E7E8"/>
<path d="M1263.71 1307.5C1263.71 1242.94 1223.04 1190.6 1172.87 1190.6C1122.69 1190.6 1082.02 1242.94 1082.02 1307.5C1082.02 1372.06 1122.69 1424.4 1172.87 1424.4C1223.04 1424.4 1263.71 1372.06 1263.71 1307.5Z" fill="#939598"/>
<path d="M1257.57 1307.5C1257.57 1246.31 1219.65 1196.71 1172.87 1196.71C1126.09 1196.71 1088.17 1246.31 1088.17 1307.5C1088.17 1368.69 1126.09 1418.29 1172.87 1418.29C1219.65 1418.29 1257.57 1368.69 1257.57 1307.5Z" fill="url(#paint2_linear)"/>
<path d="M1172.87 1418.29C1219.67 1418.29 1257.57 1368.7 1257.57 1307.5C1257.57 1246.3 1219.63 1196.71 1172.87 1196.71L1172.87 1418.29Z" fill="url(#paint3_linear)"/>
<path d="M1172.87 1196.71C1153.41 1196.71 1135.47 1205.33 1121.15 1219.77L1138.15 1241.92L1123.65 1268.38L1123.65 1277.31L1150.3 1307.28L1134.24 1358.93L1114.21 1387.41C1129.43 1406.56 1150.12 1418.32 1172.9 1418.32C1179.59 1418.32 1186.1 1417.31 1192.36 1415.39L1192.36 1414.63L1192.36 1275.58L1192.36 1259.65L1192.36 1199.64C1186.07 1197.73 1179.56 1196.71 1172.87 1196.71Z" fill="url(#paint4_linear)"/>
<path opacity="0.2" d="M1153.16 1421.65C1134.35 1403.16 1121.12 1359.04 1121.12 1307.5C1121.12 1255.96 1134.35 1211.84 1153.16 1193.35C1112.47 1204.93 1082.02 1251.62 1082.02 1307.5C1082.02 1363.38 1112.47 1410.04 1153.16 1421.65Z" fill="#231F20"/>
<path opacity="0.1" d="M1175.58 1206.74C1153.78 1195.46 1122.25 1213.12 1105.17 1246.18C1088.1 1279.25 1091.93 1315.2 1113.74 1326.48C1135.54 1337.76 1167.07 1320.1 1184.15 1287.04C1201.22 1253.97 1197.39 1218.02 1175.58 1206.74Z" fill="white"/>
<path d="M1300.1 1432.69C1333.19 1401.24 1353.8 1356.8 1353.8 1307.5C1353.8 1258.2 1333.19 1213.76 1300.1 1182.31C1298.29 1191.57 1297.38 1201.02 1297.38 1210.5L1297.38 1219.62C1315.87 1244.05 1326.82 1274.49 1326.82 1307.46C1326.82 1340.44 1315.87 1370.87 1297.38 1395.3L1297.38 1404.5C1297.38 1413.98 1298.29 1423.43 1300.1 1432.69Z" fill="#A7A9AC"/>
<path d="M1439.15 1448.62L1430.47 1406.27C1375.14 1432.11 1325.23 1439.1 1298.33 1440.87C1300.28 1448.54 1302.85 1456.07 1306.03 1463.38L1315.4 1484.96C1317.49 1489.81 1320.02 1494.4 1322.88 1498.71C1385.63 1480.9 1439.15 1448.62 1439.15 1448.62Z" fill="url(#paint5_linear)"/>
<g opacity="0.1">
<path opacity="0.1" d="M1323.46 1446.26C1317.09 1447.17 1311.24 1447.78 1305.99 1448.26L1309.54 1471.53L1315.36 1484.96C1316.34 1487.24 1317.42 1489.44 1318.61 1491.61C1322.41 1490.57 1326.17 1489.44 1329.86 1488.32L1323.46 1446.26Z" fill="white"/>
<path opacity="0.1" d="M1371.78 1436.24L1377.02 1470.8C1380.24 1469.43 1383.31 1468.09 1386.21 1466.75C1387.73 1466.06 1389.21 1465.37 1390.65 1464.72L1385.7 1432.11C1380.96 1433.63 1376.33 1435.01 1371.78 1436.24Z" fill="white"/>
<path opacity="0.1" d="M1329.9 1445.29L1336.12 1486.29C1341.25 1484.63 1346.24 1482.89 1351.09 1481.12L1345.23 1442.54C1339.77 1443.62 1334.67 1444.53 1329.9 1445.29Z" fill="white"/>
<path opacity="0.1" d="M1392.03 1430.12L1396.84 1461.86C1401.87 1459.48 1406.53 1457.16 1410.73 1455.02L1406.21 1425.09C1401.4 1426.9 1396.66 1428.57 1392.03 1430.12Z" fill="white"/>
<path opacity="0.1" d="M1416.84 1451.87C1422.55 1448.87 1427.07 1446.37 1430.18 1444.6L1424.65 1417.6C1420.53 1419.41 1416.44 1421.07 1412.39 1422.67L1416.84 1451.87Z" fill="white"/>
<path opacity="0.1" d="M1351.63 1441.2L1357.35 1478.8C1362.05 1476.99 1366.57 1475.22 1370.87 1473.41L1365.48 1437.9C1360.67 1439.13 1356.04 1440.22 1351.63 1441.2Z" fill="white"/>
</g>
<path d="M1439.15 1166.38L1430.47 1208.73C1375.14 1182.89 1325.23 1175.9 1298.33 1174.13C1300.28 1166.46 1302.85 1158.93 1306.03 1151.62L1315.4 1130.04C1317.49 1125.19 1320.02 1120.6 1322.88 1116.29C1385.63 1134.1 1439.15 1166.38 1439.15 1166.38Z" fill="url(#paint6_linear)"/>
<g opacity="0.1">
<path opacity="0.1" d="M1323.46 1168.74C1317.09 1167.83 1311.24 1167.22 1305.99 1166.74L1309.54 1143.47L1315.36 1130.04C1316.34 1127.76 1317.42 1125.56 1318.61 1123.39C1322.41 1124.43 1326.17 1125.56 1329.86 1126.68L1323.46 1168.74Z" fill="white"/>
<path opacity="0.1" d="M1371.78 1178.76L1377.02 1144.2C1380.24 1145.57 1383.31 1146.91 1386.21 1148.25C1387.73 1148.94 1389.21 1149.63 1390.65 1150.28L1385.7 1182.89C1380.96 1181.37 1376.33 1179.99 1371.78 1178.76Z" fill="white"/>
<path opacity="0.1" d="M1329.9 1169.71L1336.12 1128.71C1341.25 1130.37 1346.24 1132.11 1351.09 1133.88L1345.23 1172.46C1339.77 1171.38 1334.67 1170.47 1329.9 1169.71Z" fill="white"/>
<path opacity="0.1" d="M1392.03 1184.88L1396.84 1153.14C1401.87 1155.52 1406.53 1157.84 1410.73 1159.98L1406.21 1189.91C1401.4 1188.1 1396.66 1186.43 1392.03 1184.88Z" fill="white"/>
<path opacity="0.1" d="M1416.84 1163.13C1422.55 1166.13 1427.07 1168.63 1430.18 1170.4L1424.65 1197.4C1420.53 1195.59 1416.44 1193.93 1412.39 1192.33L1416.84 1163.13Z" fill="white"/>
<path opacity="0.1" d="M1351.63 1173.8L1357.35 1136.2C1362.05 1138.01 1366.57 1139.78 1370.87 1141.59L1365.48 1177.1C1360.67 1175.87 1356.04 1174.78 1351.63 1173.8Z" fill="white"/>
</g>
<path d="M1408.77 1230.12L1408.77 1384.88L1490 1384.88L1490 1230.12L1408.77 1230.12Z" fill="#D1D3D4"/>
</g>
</g>
<g clip-path="url(#clip5)">
<path d="M591 1265.3L591.5 1283.3L606.6 1293.1L589.6 1299.2L585 1316.6L574 1302.3L556 1303.2L566.2 1288.4L559.7 1271.5L577 1276.6L591 1265.3Z" fill="#539DFF"/>
<path d="M839 1007L853.9 1022.1L874.8 1018.4L865 1037.2L875 1055.9L854.1 1052.5L839.3 1067.7L836.2 1046.8L817.1 1037.5L836.1 1028L839 1007Z" fill="#539DFF"/>
<path d="M643.7 1367.4L662.8 1402.2L697.6 1421.3L662.8 1440.3L643.7 1475.2L624.7 1440.3L589.8 1421.3L624.7 1402.2L643.7 1367.4Z" fill="#FF705A"/>
</g>
<g clip-path="url(#clip6)">
<path d="M318.023 1181.92C328.807 1159.86 332.187 1134.09 325.749 1108.32C311.263 1050.18 252.514 1014.74 194.409 1029.24C179.119 1033.1 165.276 1040.03 153.527 1049.21C121.014 1074.82 104.596 1117.98 115.219 1160.66C129.705 1218.81 188.454 1254.24 246.559 1239.75C279.233 1231.85 304.503 1209.95 318.023 1181.92Z" fill="#74EFFF"/>
<path d="M131.637 1153.09C144.352 1204.47 196.341 1235.72 247.846 1223C265.552 1218.49 281.003 1209.47 292.914 1197.23C288.729 1198.84 284.544 1200.29 280.038 1201.41C221.933 1215.91 163.023 1180.48 148.698 1122.33C144.513 1105.42 144.513 1088.35 148.215 1072.24C131.476 1094.47 124.394 1123.94 131.637 1153.09Z" fill="white"/>
</g>
<g clip-path="url(#clip7)">
<path d="M236.4 1396L263 1444.6L311.6 1471.2L263 1497.8L236.4 1546.4L209.8 1497.8L161.2 1471.2L209.8 1444.6L236.4 1396Z" fill="#4B5670"/>
<path d="M311.6 1571.9C320.934 1571.9 328.5 1564.33 328.5 1555C328.5 1545.67 320.934 1538.1 311.6 1538.1C302.267 1538.1 294.7 1545.67 294.7 1555C294.7 1564.33 302.267 1571.9 311.6 1571.9Z" fill="white"/>
</g>
<rect x="-6" y="-18" width="1440" height="900" fill="url(#paint7_linear)"/>
<g clip-path="url(#clip8)">
<path d="M898.77 319.052C932.394 352.824 953.216 399.398 953.216 450.827C953.216 553.981 869.56 637.637 766.407 637.637C675.321 637.637 599.464 572.375 582.983 486.07C584.087 596.14 673.629 685.02 783.992 685.02C895.017 685.02 985 595.037 985 484.01C985 415.658 950.861 355.325 898.77 319.052Z" fill="#EBD6A1"/>
<path d="M766.407 637.637C869.56 637.637 953.216 553.981 953.216 450.827C953.216 399.398 932.394 352.824 898.77 319.052C866.249 296.391 826.666 283 783.992 283C672.966 283 582.983 372.984 582.983 484.01C582.983 484.672 583.057 485.334 583.057 486.07C599.464 572.375 675.321 637.637 766.407 637.637Z" fill="#FFEAB1"/>
<path d="M881.333 516.972C881.333 541.915 861.099 562.074 836.231 562.074C811.289 562.074 791.129 541.841 791.129 516.972C791.129 492.03 811.362 471.87 836.231 471.87C861.099 471.796 881.333 492.03 881.333 516.972Z" fill="#EBD6A1"/>
<path d="M668.11 549.64C680.138 549.64 689.889 539.889 689.889 527.862C689.889 515.834 680.138 506.083 668.11 506.083C656.083 506.083 646.332 515.834 646.332 527.862C646.332 539.889 656.083 549.64 668.11 549.64Z" fill="#EBD6A1"/>
<path d="M750.588 653.971C770.377 653.971 786.419 637.929 786.419 618.14C786.419 598.35 770.377 582.308 750.588 582.308C730.799 582.308 714.757 598.35 714.757 618.14C714.757 637.929 730.799 653.971 750.588 653.971Z" fill="#EBD6A1"/>
<path d="M927.391 443.838C927.391 452.961 920.033 460.319 910.91 460.319C901.786 460.319 894.429 452.961 894.429 443.838C894.429 434.714 901.786 427.356 910.91 427.356C920.033 427.356 927.391 434.714 927.391 443.838Z" fill="#EBD6A1"/>
<path d="M823.723 367.539C823.723 380.415 813.275 390.863 800.4 390.863C787.524 390.863 777.076 380.415 777.076 367.539C777.076 354.663 787.524 344.215 800.4 344.215C813.275 344.215 823.723 354.663 823.723 367.539Z" fill="#EBD6A1"/>
<path d="M705.487 439.129C719.221 439.129 730.355 427.995 730.355 414.26C730.355 400.525 719.221 389.391 705.487 389.391C691.752 389.391 680.618 400.525 680.618 414.26C680.618 427.995 691.752 439.129 705.487 439.129Z" fill="#EBD6A1"/>
<path d="M680.544 657.797L645.081 736.009L660.09 742.778L669.361 722.397L684.003 729.019L674.732 749.399L699.748 760.804L712.697 732.256L680.544 657.797Z" fill="#F0F0F0"/>
<path d="M622.052 631.31L633.088 606.809L640.74 590.107L662.003 543.092L653.321 539.192L612.781 601.07L508.009 633.885L493 666.994L531.921 684.652L544.797 656.178L622.052 631.31Z" fill="white"/>
<path d="M544.798 656.178L531.922 684.652L556.938 695.983L566.208 675.602L580.85 682.224L571.579 702.605L586.589 709.448L622.052 631.31L544.798 656.178Z" fill="#F0F0F0"/>
<path d="M709.386 644.921L729.177 573.552L720.496 569.653L699.232 616.594L691.654 633.37L680.544 657.797L712.696 732.256L699.747 760.804L738.669 778.388L753.678 745.279L709.386 644.921Z" fill="white"/>
<path d="M566.154 675.608L556.914 695.977L571.521 702.603L580.761 682.234L566.154 675.608Z" fill="white"/>
<path d="M669.36 722.397L660.09 742.778L674.731 749.399L684.002 729.019L669.36 722.397Z" fill="white"/>
<path d="M724.469 483.274C724.469 483.274 685.768 490.779 667.963 530.069L697.246 543.312L724.469 483.274Z" fill="#6D6E71"/>
<path d="M680.839 579.365L664.432 560.088L669.508 548.831L690.404 558.322L697.173 543.313L667.963 529.995L662.004 543.092L640.74 590.107L669.95 603.351L680.839 579.365Z" fill="white"/>
<path d="M697.246 543.312H697.172L690.403 558.322L711.299 567.813L706.148 579.071L680.838 579.365L669.949 603.351L699.232 616.594L720.496 569.653L726.455 556.556L697.246 543.312Z" fill="#F5F5F5"/>
<path d="M615.871 722.691L645.081 736.009L680.544 657.797L691.654 633.37L662.371 620.126L615.871 722.691Z" fill="#F5F5F5"/>
<path d="M662.371 620.126L633.088 606.809L622.051 631.31L586.588 709.448L615.871 722.691L662.371 620.126Z" fill="white"/>
<path d="M726.455 556.556C744.26 517.267 724.468 483.274 724.395 483.201L697.172 543.239L726.455 556.556Z" fill="#626366"/>
<path d="M645.081 736.009L615.871 722.691L604.393 747.928L592.989 773.165L613.37 782.435L634.559 792L645.081 736.009Z" fill="#626366"/>
<path d="M615.871 722.691L586.588 709.448L551.419 754.255L592.989 773.165L604.393 747.928L615.871 722.691Z" fill="#6D6E71"/>
<path d="M669.507 548.831L664.431 560.088L680.838 579.365L690.403 558.322L669.507 548.831Z" fill="#30BBFF"/>
<path d="M711.299 567.813L690.404 558.322L680.839 579.365L706.149 579.071L711.299 567.813Z" fill="#2CABEB"/>
<path d="M640.635 590.072L633.038 606.823L662.319 620.102L669.916 603.351L640.635 590.072Z" fill="#FF705A"/>
<path d="M669.931 603.38L662.334 620.132L691.615 633.411L699.212 616.659L669.931 603.38Z" fill="#F06A54"/>
</g>
<path d="M305 218L311.9 235.4L329.8 229.9L320.5 246.2L336 256.8L317.4 259.6L318.8 278.4L305 265.6L291.2 278.4L292.6 259.6L274 256.8L289.5 246.2L280.2 229.9L298.1 235.4L305 218Z" fill="#FFE284"/>
<g clip-path="url(#clip9)">
<path d="M1147 415.3L1147.5 433.3L1162.6 443.1L1145.6 449.2L1141 466.6L1130 452.3L1112 453.2L1122.2 438.4L1115.7 421.5L1133 426.6L1147 415.3Z" fill="#539DFF"/>
<path d="M1395 157L1409.9 172.1L1430.8 168.4L1421 187.2L1431 205.9L1410.1 202.5L1395.3 217.7L1392.2 196.8L1373.1 187.5L1392.1 178L1395 157Z" fill="#539DFF"/>
<path d="M1199.7 517.4L1218.8 552.2L1253.6 571.3L1218.8 590.3L1199.7 625.2L1180.7 590.3L1145.8 571.3L1180.7 552.2L1199.7 517.4Z" fill="#FF705A"/>
</g>
<path d="M784 77L784.5 95L799.6 104.8L782.6 110.9L778 128.3L767 114L749 114.9L759.2 100.1L752.7 83.2L770 88.3L784 77Z" fill="#539DFF"/>
<g clip-path="url(#clip10)">
<path d="M215.4 562L242 610.6L290.6 637.2L242 663.8L215.4 712.4L188.8 663.8L140.2 637.2L188.8 610.6L215.4 562Z" fill="#4B5670"/>
<path d="M290.6 737.9C299.934 737.9 307.5 730.334 307.5 721C307.5 711.666 299.934 704.1 290.6 704.1C281.267 704.1 273.7 711.666 273.7 721C273.7 730.334 281.267 737.9 290.6 737.9Z" fill="white"/>
</g>
<defs>
<linearGradient id="paint0_linear" x1="-4" y1="1771.5" x2="1688.5" y2="1771.5" gradientUnits="userSpaceOnUse">
<stop stop-color="#13003F"/>
<stop offset="1" stop-color="#4F0258" stop-opacity="0.99"/>
</linearGradient>
<linearGradient id="paint1_linear" x1="-4" y1="874.5" x2="1688.5" y2="874.5" gradientUnits="userSpaceOnUse">
<stop stop-color="#13003F"/>
<stop offset="1" stop-color="#4F0258" stop-opacity="0.99"/>
</linearGradient>
<linearGradient id="paint2_linear" x1="1257.57" y1="1307.5" x2="1088.17" y2="1307.5" gradientUnits="userSpaceOnUse">
<stop offset="0.0108" stop-color="white"/>
<stop offset="1" stop-color="#FF5233"/>
</linearGradient>
<linearGradient id="paint3_linear" x1="1257.57" y1="1307.5" x2="1172.87" y2="1307.5" gradientUnits="userSpaceOnUse">
<stop stop-color="#EB4D4B"/>
<stop offset="0.1741" stop-color="#ED564B"/>
<stop offset="0.458" stop-color="#F26E4B"/>
<stop offset="0.8143" stop-color="#FA964C"/>
<stop offset="1" stop-color="#FFAD4C"/>
</linearGradient>
<linearGradient id="paint4_linear" x1="1192.36" y1="1307.52" x2="1114.21" y2="1307.52" gradientUnits="userSpaceOnUse">
<stop stop-color="#EB4D4B"/>
<stop offset="0.1741" stop-color="#ED564B"/>
<stop offset="0.458" stop-color="#F26E4B"/>
<stop offset="0.8143" stop-color="#FA964C"/>
<stop offset="1" stop-color="#FFAD4C"/>
</linearGradient>
<linearGradient id="paint5_linear" x1="1439.15" y1="1452.49" x2="1298.33" y2="1452.49" gradientUnits="userSpaceOnUse">
<stop stop-color="#EB4D4B"/>
<stop offset="0.1741" stop-color="#ED564B"/>
<stop offset="0.458" stop-color="#F26E4B"/>
<stop offset="0.8143" stop-color="#FA964C"/>
<stop offset="1" stop-color="#FFAD4C"/>
</linearGradient>
<linearGradient id="paint6_linear" x1="1439.15" y1="1162.51" x2="1298.33" y2="1162.51" gradientUnits="userSpaceOnUse">
<stop stop-color="#EB4D4B"/>
<stop offset="0.1741" stop-color="#ED564B"/>
<stop offset="0.458" stop-color="#F26E4B"/>
<stop offset="0.8143" stop-color="#FA964C"/>
<stop offset="1" stop-color="#FFAD4C"/>
</linearGradient>
<linearGradient id="paint7_linear" x1="-6" y1="15.5" x2="1686.5" y2="15.5" gradientUnits="userSpaceOnUse">
<stop stop-color="#13003F"/>
<stop offset="1" stop-color="#4F0258" stop-opacity="0.99"/>
</linearGradient>
<clipPath id="clip0">
<rect width="266.8" height="266.7" fill="white" transform="translate(1051 1873)"/>
</clipPath>
<clipPath id="clip1">
<rect width="319" height="468.2" fill="white" transform="translate(687 2153)"/>
</clipPath>
<clipPath id="clip2">
<rect width="180.5" height="604.9" fill="white" transform="translate(739 1820)"/>
</clipPath>
<clipPath id="clip3">
<rect width="562" height="496" fill="white" transform="translate(1023 1572) rotate(-90)"/>
</clipPath>
<clipPath id="clip4">
<rect width="529" height="413" fill="white" transform="translate(1023 1572) rotate(-90)"/>
</clipPath>
<clipPath id="clip5">
<rect width="319" height="468.2" fill="white" transform="translate(556 1007)"/>
</clipPath>
<clipPath id="clip6">
<rect width="217" height="217" fill="white" transform="translate(112 1026)"/>
</clipPath>
<clipPath id="clip7">
<rect width="180.5" height="604.9" fill="white" transform="translate(148 1396)"/>
</clipPath>
<clipPath id="clip8">
<rect width="492" height="509" fill="white" transform="translate(493 283)"/>
</clipPath>
<clipPath id="clip9">
<rect width="319" height="468.2" fill="white" transform="translate(1112 157)"/>
</clipPath>
<clipPath id="clip10">
<rect width="180.5" height="604.9" fill="white" transform="translate(127 562)"/>
</clipPath>
</defs>
</svg>
